<?xml version="1.0" standalone="no"?>
<!DOCTYPE svg PUBLIC "-//W3C//DTD SVG 20010904//EN"
 "http://www.w3.org/TR/2001/REC-SVG-20010904/DTD/svg10.dtd">
<svg version="1.0" xmlns="http://www.w3.org/2000/svg"
 width="1280.000000pt" height="905.000000pt" viewBox="0 0 1280.000000 905.000000"
 preserveAspectRatio="xMidYMid meet">
<metadata>
Created by potrace 1.15, written by Peter Selinger 2001-2017
</metadata>
<g transform="translate(0.000000,905.000000) scale(0.100000,-0.100000)"
fill="#000000" stroke="none">
<path d="M6830 8595 c0 -4 26 -34 59 -68 226 -239 435 -562 576 -892 48 -112
135 -363 135 -388 0 -10 -50 3 -187 49 -417 141 -844 227 -1313 265 -178 14
-638 14 -820 -1 -678 -53 -1306 -218 -1851 -486 -207 -102 -297 -153 -474
-269 -224 -148 -357 -256 -561 -460 -269 -269 -412 -465 -560 -768 -115 -238
-200 -524 -220 -744 -4 -40 -10 -73 -14 -73 -11 0 -165 210 -245 335 -180 282
-255 508 -242 733 12 219 127 427 301 547 31 21 56 40 56 43 0 8 -113 -8 -170
-24 -211 -59 -385 -242 -436 -459 -23 -101 -15 -270 21 -390 57 -196 119 -301
508 -865 l210 -304 23 -137 c61 -366 180 -664 391 -981 141 -211 365 -460 567
-630 l90 -76 197 -632 c109 -348 199 -634 201 -636 4 -4 941 -24 945 -20 2 2
-7 133 -20 292 -13 159 -22 291 -21 293 2 2 58 -12 123 -33 942 -291 2034
-311 2989 -55 63 17 115 29 117 27 2 -2 14 -151 28 -331 13 -180 26 -329 28
-331 6 -4 1007 118 1012 124 3 3 53 253 112 555 58 303 109 560 112 572 3 13
35 45 77 75 39 28 114 86 166 128 74 60 119 87 203 123 455 194 812 580 965
1042 38 113 70 263 81 378 5 48 11 90 14 93 3 3 80 32 171 64 l166 58 182 7
c177 8 182 8 205 33 28 30 56 117 74 227 16 101 16 422 0 535 -25 177 -78 328
-120 346 -9 3 -111 6 -227 4 -184 -1 -235 2 -385 25 -96 14 -183 29 -193 34
-16 6 -25 37 -52 167 -44 216 -105 457 -149 584 -127 364 -299 567 -580 685
-286 119 -325 140 -406 220 -91 90 -125 190 -116 344 20 335 248 664 582 838
l80 42 -65 30 c-125 59 -208 75 -380 75 -139 -1 -164 -3 -243 -27 -246 -75
-448 -240 -562 -459 -17 -32 -33 -58 -36 -58 -3 0 -250 135 -548 300 -559 310
-571 317 -571 305z"/>
</g>
</svg>
